# xmcd CD database file
#
# Track frame offsets:
#	150
#	27123
#	43978
#	59130
#	78215
#	99733
#	122578
#	142853
#	157660
#	175378
#	193855
#	210515
#	229533
#	246463
#	268003
#	284818
#
# Disc length: 4003 seconds
#
# Revision: 1
# Processed by: cddbd v1.5.2PL0 Copyright (c) Steve Scherf et al.
# Submitted via: CDex 1.86
#
DISCID=e80fa110
DTITLE=Chris Norman - Midnight Lady
DYEAR=1993
DGENRE=Country
TTITLE0=Sarah
TTITLE1=Some Hearts Are Diamonds
TTITLE2=Broken Heroes
TTITLE3=Wheels Of Fire
TTITLE4=Here Comes The Night
TTITLE5=Midnights Lady
TTITLE6=Woman In Love
TTITLE7=She Said She Was A Lucky Girl
TTITLE8=Ordinary Heart
TTITLE9=Hunters Of The Night
TTITLE10=Its A Tragedy
TTITLE11=Till The Night Well Meet Again
TTITLE12=No Arms Can Ever Hold You
TTITLE13=For The Good Years
TTITLE14=Chain Reaction
TTITLE15=Love For Sale
EXTD=YEAR: 1993
EXTT0=
EXTT1=
EXTT2=
EXTT3=
EXTT4=
EXTT5=
EXTT6=
EXTT7=
EXTT8=
EXTT9=
EXTT10=
EXTT11=
EXTT12=
EXTT13=
EXTT14=
EXTT15=
PLAYORDER=
